<?xml version="1.0" encoding="utf-8"?>
<!-- Generator: Adobe Illustrator 19.2.0, SVG Export Plug-In . SVG Version: 6.00 Build 0)  -->
<svg version="1.1" id="norm" xmlns="http://www.w3.org/2000/svg" xmlns:xlink="http://www.w3.org/1999/xlink" x="0px" y="0px"
	 viewBox="0 0 17 17" style="enable-background:new 0 0 17 17;" xml:space="preserve">
<style type="text/css">
	.st0{fill:#252525;}
</style>
<path class="st0" d="M8,9.5l0-0.2C8,9,8.1,9,8.2,8.7c0.1-0.2,0.2-0.4,0.4-0.5c0.1-0.1,0.4-0.3,0.7-0.6S9.7,7.2,9.8,7
	C9.9,6.9,10,6.7,10,6.5c0-0.3-0.1-0.6-0.4-0.8C9.3,5.4,8.9,5.2,8.5,5.2c-0.4,0-0.7,0.2-1,0.4C7.2,5.9,7.1,6.2,7,6.7L6,6.6
	C6.1,6,6.3,5.5,6.8,5.1c0.4-0.3,1-0.7,1.7-0.7c0.8,0,1.4,0.4,1.8,0.8C10.7,5.5,11,6,11,6.5c0,0.3-0.1,0.6-0.2,0.8
	c-0.2,0.2-0.5,0.5-0.9,0.9C9.5,8.4,9.3,8.6,9.2,8.7C9.1,8.8,9,9,9,9.1c0,0.1-0.1,0.1-0.1,0.4C8.9,9.5,8,9.5,8,9.5z M7.8,12v-1.3h1.3
	V12C9.1,12,7.8,12,7.8,12z"/>
<path class="st0" d="M8.5,0C3.8,0,0,3.8,0,8.5S3.8,17,8.5,17S17,13.2,17,8.5S13.2,0,8.5,0z M8.5,16C4.4,16,1,12.6,1,8.5S4.4,1,8.5,1
	S16,4.4,16,8.5S12.6,16,8.5,16z"/>
</svg>
